<svg width="512" height="512" viewBox="0 0 512 512" fill="none" xmlns="http://www.w3.org/2000/svg">
<rect width="512" height="512" rx="256" fill="#131315"/>
<path d="M337.816 296.152C337.816 264.664 305.944 237.784 289.432 215.128C327.832 176.728 313.624 151 280.6 151C252.184 151 222.232 168.28 222.232 198.232C222.232 206.68 224.92 214.744 228.76 222.424C216.088 232.408 198.424 243.928 175 258.136L186.136 281.944C210.328 270.04 230.68 258.904 247.192 248.152C264.856 267.736 284.824 285.016 284.824 298.84C284.824 312.664 262.552 316.504 194.968 313.048L193.816 361.048C305.176 362.2 337.816 330.712 337.816 296.152Z" fill="#FBBF24"/>
</svg>
