<svg width="863" height="367" viewBox="0 0 863 367" fill="none" xmlns="http://www.w3.org/2000/svg">
    <path d="M794.544 309.387C749.628 132.765 594.428 5.26939 412.256 0.15564C315.947 -2.54787 214.604 29.3934 140.818 141.168C8.91858 340.976 148.924 479.05 246.532 544.66C286 588.5 280.406 618.487 317 662C382.931 740.238 565.54 833.584 716.596 681.253C826.082 570.843 824.463 427.034 794.544 309.387Z" fill="currentColor"/>
    <path d="M407.692 341.755L403.023 371.562C403.023 371.562 380.039 383.773 396.199 384.132C412.36 384.491 488.495 384.132 488.495 384.132C488.495 384.132 503.219 384.132 479.876 371.203L475.207 339.959L407.692 341.755Z" fill="#718096"/>
    <path opacity="0.1" d="M392.948 383.808C396.087 381.271 399.461 379.038 403.023 377.14L407.691 347.332L475.207 347.396L479.876 376.781C483.712 378.761 487.328 381.14 490.664 383.88C493.663 383.196 496.939 380.653 479.876 371.203L475.207 339.959L407.691 341.755L403.023 371.562C403.023 371.562 383.709 381.824 392.948 383.808Z" fill="black"/>
    <path d="M582.486 134H299.695C293.788 134 289 138.788 289 144.695V335.19C289 341.097 293.788 345.885 299.695 345.885H582.486C588.392 345.885 593.18 341.097 593.18 335.19V144.695C593.18 138.788 588.392 134 582.486 134Z" fill="#4A5568"/>
    <path d="M574.945 145.312H307.235C302.817 145.312 299.235 148.894 299.235 153.313V296.047C299.235 300.465 302.817 304.047 307.235 304.047H574.945C579.363 304.047 582.945 300.465 582.945 296.046V153.312C582.945 148.894 579.363 145.312 574.945 145.312Z" fill="#1A202C"/>
    <path d="M441.09 142.08C442.082 142.08 442.886 141.276 442.886 140.285C442.886 139.293 442.082 138.489 441.09 138.489C440.099 138.489 439.295 139.293 439.295 140.285C439.295 141.276 440.099 142.08 441.09 142.08Z" fill="#1A202C"/>
    <path d="M593.18 316.616V335.19C593.18 336.594 592.904 337.985 592.367 339.283C591.829 340.58 591.041 341.76 590.048 342.753C589.055 343.746 587.876 344.534 586.578 345.071C585.281 345.608 583.89 345.885 582.485 345.885H299.695C298.29 345.885 296.9 345.608 295.602 345.071C294.304 344.534 293.125 343.746 292.132 342.753C291.139 341.76 290.351 340.58 289.814 339.283C289.276 337.985 289 336.594 289 335.19V316.616H593.18Z" fill="#4A5568"/>
    <path d="M441.09 338.164C444.859 338.164 447.914 335.109 447.914 331.34C447.914 327.572 444.859 324.517 441.09 324.517C437.322 324.517 434.267 327.572 434.267 331.34C434.267 335.109 437.322 338.164 441.09 338.164Z" fill="#1A202C"/>
    <rect x="309" y="155" width="30" height="4" rx="2" fill="#38B2AC"/>
    <rect x="387" y="155" width="16" height="4" rx="2" fill="#38B2AC"/>
    <rect x="343" y="155" width="40" height="4" rx="2" fill="#718096"/>
    <rect x="376" y="191" width="63" height="4" rx="2" fill="#718096"/>
    <rect x="341" y="227" width="63" height="4" rx="2" fill="#718096"/>
    <rect x="341" y="239" width="80" height="4" rx="2" fill="#718096"/>
    <rect x="341" y="251" width="52" height="4" rx="2" fill="#718096"/>
    <rect x="341" y="275" width="46" height="4" rx="2" fill="#718096"/>
    <rect x="341" y="287" width="66" height="4" rx="2" fill="#718096"/>
    <rect x="341" y="299" width="80" height="4" rx="2" fill="#718096"/>
    <rect x="407" y="155" width="60" height="4" rx="2" fill="#38A169"/>
    <rect x="309" y="167" width="30" height="4" rx="2" fill="#38B2AC"/>
    <rect x="378" y="167" width="16" height="4" rx="2" fill="#38B2AC"/>
    <rect x="343" y="167" width="31" height="4" rx="2" fill="#718096"/>
    <rect x="398" y="167" width="80" height="4" rx="2" fill="#38A169"/>
    <rect x="438" y="203" width="40" height="4" rx="2" fill="#38A169"/>
    <rect x="309" y="191" width="27" height="4" rx="2" fill="#805AD5"/>
    <rect x="309" y="203" width="27" height="4" rx="2" fill="#805AD5"/>
    <rect x="325" y="215" width="27" height="4" rx="2" fill="#805AD5"/>
    <rect x="325" y="263" width="18" height="4" rx="2" fill="#805AD5"/>
    <rect x="347" y="263" width="36" height="4" rx="2" fill="#3182CE"/>
    <rect x="397" y="203" width="37" height="4" rx="2" fill="#805AD5"/>
    <rect x="340" y="203" width="53" height="4" rx="2" fill="#D69E2E"/>
    <rect x="340" y="191" width="32" height="4" rx="2" fill="#E53E3E"/>
    <rect x="356" y="215" width="20" height="4" rx="2" fill="#E53E3E"/>
    <rect x="309" y="179" width="30" height="4" rx="2" fill="#38B2AC"/>
    <rect x="391" y="179" width="16" height="4" rx="2" fill="#38B2AC"/>
    <rect x="343" y="179" width="44" height="4" rx="2" fill="#718096"/>
    <rect x="411" y="179" width="48" height="4" rx="2" fill="#38A169"/>
    <rect x="539" y="155" width="34" height="30.0465" rx="2" fill="#2D3748"/>
    <rect x="540.581" y="156.581" width="5.47406" height="0.729875" rx="0.364937" fill="#38B2AC"/>
    <rect x="554.814" y="156.581" width="2.9195" height="0.729875" rx="0.364937" fill="#38B2AC"/>
    <rect x="546.785" y="156.581" width="7.29875" height="0.729875" rx="0.364937" fill="#718096"/>
    <rect x="552.807" y="163.15" width="11.4955" height="0.729875" rx="0.364937" fill="#718096"/>
    <rect x="546.42" y="169.719" width="11.4955" height="0.729875" rx="0.364937" fill="#718096"/>
    <rect x="546.42" y="171.909" width="14.5975" height="0.729875" rx="0.364937" fill="#718096"/>
    <rect x="546.42" y="174.098" width="9.48837" height="0.729875" rx="0.364937" fill="#718096"/>
    <rect x="546.42" y="178.478" width="8.39356" height="0.729875" rx="0.364937" fill="#718096"/>
    <rect x="546.42" y="180.667" width="12.0429" height="0.729875" rx="0.364937" fill="#718096"/>
    <rect x="546.42" y="182.857" width="14.5975" height="0.729875" rx="0.364937" fill="#718096"/>
    <rect x="558.463" y="156.581" width="10.9481" height="0.729875" rx="0.364937" fill="#38A169"/>
    <rect x="540.581" y="158.771" width="5.47406" height="0.729875" rx="0.364937" fill="#38B2AC"/>
    <rect x="553.172" y="158.771" width="2.9195" height="0.729875" rx="0.364937" fill="#38B2AC"/>
    <rect x="546.785" y="158.771" width="5.65653" height="0.729875" rx="0.364937" fill="#718096"/>
    <rect x="556.821" y="158.771" width="14.5975" height="0.729875" rx="0.364937" fill="#38A169"/>
    <rect x="564.12" y="165.34" width="7.29875" height="0.729875" rx="0.364937" fill="#38A169"/>
    <rect x="540.581" y="163.15" width="4.92665" height="0.729875" rx="0.364937" fill="#805AD5"/>
    <rect x="540.581" y="165.34" width="4.92665" height="0.729875" rx="0.364937" fill="#805AD5"/>
    <rect x="543.501" y="167.529" width="4.92665" height="0.729875" rx="0.364937" fill="#805AD5"/>
    <rect x="543.501" y="176.288" width="3.28444" height="0.729875" rx="0.364937" fill="#805AD5"/>
    <rect x="547.515" y="176.288" width="6.56887" height="0.729875" rx="0.364937" fill="#3182CE"/>
    <rect x="546.42" y="187.478" width="6.39" height="0.729875" rx="0.364937" fill="#718096"/>
    <rect x="546.42" y="189.667" width="13.04" height="0.729875" rx="0.364937" fill="#718096"/>
    <rect x="546.42" y="191.857" width="10.6" height="0.729875" rx="0.364937" fill="#718096"/>
    <rect x="543.501" y="185.288" width="7.28" height="0.729875" rx="0.364937" fill="#3182CE"/>
    <rect x="546.42" y="196.478" width="14.39" height="0.729875" rx="0.364937" fill="#718096"/>
    <rect x="546.42" y="198.667" width="9.04" height="0.729875" rx="0.364937" fill="#718096"/>
    <rect x="546.42" y="200.857" width="12.6" height="0.729875" rx="0.364937" fill="#718096"/>
    <rect x="543.501" y="194.288" width="3.28444" height="0.729875" rx="0.364937" fill="#805AD5"/>
    <rect x="547.515" y="194.288" width="4.57" height="0.729875" rx="0.364937" fill="#3182CE"/>
    <rect x="546.42" y="205.478" width="10.39" height="0.729875" rx="0.364937" fill="#718096"/>
    <rect x="546.42" y="207.667" width="12.0429" height="0.729875" rx="0.364937" fill="#718096"/>
    <rect x="546.42" y="209.857" width="4.6" height="0.729875" rx="0.364937" fill="#718096"/>
    <rect x="543.501" y="203.288" width="3.28444" height="0.729875" rx="0.364937" fill="#805AD5"/>
    <rect x="547.515" y="203.288" width="6.57" height="0.729875" rx="0.364937" fill="#3182CE"/>
    <rect x="546.42" y="214.478" width="8.39356" height="0.729875" rx="0.364937" fill="#718096"/>
    <rect x="546.42" y="216.667" width="10.04" height="0.729875" rx="0.364937" fill="#718096"/>
    <rect x="546.42" y="218.857" width="8.6" height="0.729875" rx="0.364937" fill="#718096"/>
    <rect x="546.42" y="221" width="10.04" height="0.729875" rx="0.364937" fill="#718096"/>
    <rect x="546.42" y="223" width="8.6" height="0.729875" rx="0.364937" fill="#718096"/>
    <rect x="543.501" y="212.288" width="8.28" height="0.729875" rx="0.364937" fill="#3182CE"/>
    <rect x="556.639" y="165.34" width="6.75134" height="0.729875" rx="0.364937" fill="#805AD5"/>
    <rect x="546.238" y="165.34" width="9.67084" height="0.729875" rx="0.364937" fill="#D69E2E"/>
    <rect x="546.238" y="163.15" width="5.839" height="0.729875" rx="0.364937" fill="#E53E3E"/>
    <rect x="552.807" y="225.15" width="11.4955" height="0.729875" rx="0.364937" fill="#718096"/>
    <rect x="540.581" y="225.15" width="4.92665" height="0.729875" rx="0.364937" fill="#38B2AC"/>
    <rect x="546.238" y="225.15" width="5.839" height="0.729875" rx="0.364937" fill="#38B2AC"/>
    <rect x="549.157" y="167.529" width="3.64937" height="0.729875" rx="0.364937" fill="#E53E3E"/>
    <rect x="540.581" y="160.961" width="5.47406" height="0.729875" rx="0.364937" fill="#38B2AC"/>
    <rect x="555.544" y="160.961" width="2.9195" height="0.729875" rx="0.364937" fill="#38B2AC"/>
    <rect x="546.785" y="160.961" width="8.02862" height="0.729875" rx="0.364937" fill="#718096"/>
    <rect x="559.193" y="160.961" width="8.7585" height="0.729875" rx="0.364937" fill="#38A169"/>
    <path d="M436.08 189.492C457.203 189.492 474.327 172.368 474.327 151.245C474.327 130.122 457.203 112.998 436.08 112.998C414.957 112.998 397.833 130.122 397.833 151.245C397.833 172.368 414.957 189.492 436.08 189.492Z" fill="#FFD2B9"/>
    <path d="M407.898 170.368V230.758H470.301C470.301 230.758 462.249 180.433 466.275 165.336L407.898 170.368Z" fill="#FFD2B9"/>
    <path d="M531.697 251.894C531.697 251.894 472.314 222.706 472.314 220.693C472.314 218.68 466.275 205.595 462.249 205.595C458.223 205.595 424.002 194.524 404.879 210.628L402.866 223.712L329.392 272.024L349.522 345.498C349.522 345.498 362.606 359.589 358.58 369.654C354.554 379.718 361.6 431.05 361.6 431.05L519.619 426.017V357.576C519.619 357.576 524.651 341.472 527.671 336.439C530.69 331.407 527.671 316.309 527.671 316.309L551.826 286.115C551.826 286.115 548.807 257.933 531.697 251.894Z" fill="#2A2A2B"/>
    <path opacity="0.1" d="M331.908 296.683L336.437 272.024C336.437 272.024 310.268 385.757 313.288 398.842C316.307 411.926 338.45 432.056 341.47 433.062C344.489 434.069 372.671 346.504 372.671 346.504L331.908 296.683Z" fill="black"/>
    <path d="M348.5 259.756L333.569 268.132C330.032 270.116 327.54 273.48 326.736 277.456C321.994 300.901 305.656 383.387 308.243 394.594C311.262 407.678 333.405 427.808 336.424 428.814C339.444 429.821 367.626 342.256 367.626 342.256L348.5 259.756Z" fill="#2A2A2A"/>
    <path opacity="0.1" d="M537.232 302.722L545.787 286.115C545.787 286.115 557.865 399.848 549.813 410.92C541.762 421.991 509.91 426.134 509.91 426.134L509.554 343.485L537.232 302.722Z" fill="black"/>
    <path d="M538.742 273.03L551.826 286.115C551.826 286.115 563.904 399.848 555.852 410.92C547.801 421.991 515.949 426.134 515.949 426.134L515.593 343.485L538.742 273.03Z" fill="#2A2A2A"/>
    <ellipse cx="436.5" cy="217" rx="56.5" ry="21" fill="#2A2A2A"/>
    <path d="M387 240C378.2 231.2 383.333 223.333 387 220.5H489.5C498.7 229.7 495 232.667 492 233L387 240Z" fill="#2A2A2A"/>
    <path d="M398.5 105H433.5H456C469.255 105 480 115.745 480 129V148.5C480 172.524 460.524 192 436.5 192C412.476 192 393 172.524 393 148.5V110H398.5V105Z" fill="#744210"/>
    <path d="M320.321 546.132C320.321 546.132 297.857 296.462 361.036 289.461C424.215 282.461 514.069 289.461 514.069 289.461C514.069 289.461 566.016 282.461 550.572 546.132C550.572 546.132 564.612 623.133 438.254 616.132C311.897 609.132 320.321 546.132 320.321 546.132Z" fill="#F6E05E"/>
    <path d="M718.353 319.338C718.353 345.453 702.828 354.572 683.676 354.572C664.525 354.572 649 345.453 649 319.338C649 293.223 683.676 260 683.676 260C683.676 260 718.353 293.223 718.353 319.338Z" fill="#2F855A"/>
    <path d="M682.769 328.721L697.548 301.682L682.824 325.292L682.984 315.465L693.17 295.902L683.026 312.864L683.313 295.189L694.221 279.615L683.358 292.41L683.538 260L682.459 301.067L671.413 284.16L682.325 304.532L681.292 324.272L681.261 323.748L668.476 305.885L681.222 325.599L681.093 328.068L681.07 328.105L681.081 328.308L678.459 354.65H681.962L682.382 352.522L695.097 332.855L682.413 350.577L682.769 328.721Z" fill="#3F3D56"/>
    <path d="M705.823 411.222H664.482L654.629 355.533C654.195 353.083 656.08 350.836 658.568 350.836H709.592C712.019 350.836 713.887 352.98 713.554 355.385L705.823 411.222Z" fill="#744210"/>
</svg>
